<svg xmlns:xlink="http://www.w3.org/1999/xlink" data-name="Build icon here" xmlns="http://www.w3.org/2000/svg" viewBox="0 0 32 32" width="48"  height="48" ><defs><linearGradient id="428wjkzu7a" x1="16" y1="26" x2="16" y2="6" gradientUnits="userSpaceOnUse"><stop offset="0" stop-color="#161616" stop-opacity=".05"></stop><stop offset="1" stop-color="#161616" stop-opacity=".3"></stop></linearGradient><linearGradient id="20lamzq4wb" x1="2" y1="30" x2="30" y2="2" gradientUnits="userSpaceOnUse"><stop offset="0" stop-color="#33b1ff"></stop><stop offset="1" stop-color="#8a3ffc"></stop></linearGradient><linearGradient id="428wjkzu7a" x1="16" y1="26" x2="16" y2="6" gradientUnits="userSpaceOnUse"><stop offset="0" stop-color="#161616" stop-opacity=".05"></stop><stop offset="1" stop-color="#161616" stop-opacity=".3"></stop></linearGradient><linearGradient id="20lamzq4wb" x1="2" y1="30" x2="30" y2="2" gradientUnits="userSpaceOnUse"><stop offset="0" stop-color="#33b1ff"></stop><stop offset="1" stop-color="#8a3ffc"></stop></linearGradient><linearGradient id="428wjkzu7a" x1="16" y1="26" x2="16" y2="6" gradientUnits="userSpaceOnUse"><stop offset="0" stop-color="#161616" stop-opacity=".05"></stop><stop offset="1" stop-color="#161616" stop-opacity=".3"></stop></linearGradient><linearGradient id="20lamzq4wb" x1="2" y1="30" x2="30" y2="2" gradientUnits="userSpaceOnUse"><stop offset="0" stop-color="#33b1ff"></stop><stop offset="1" stop-color="#8a3ffc"></stop></linearGradient></defs><path fill="url(&quot;#428wjkzu7a&quot;)" d="M6 6h20v20H6z"></path><path fill="#001D6C" d="M10 10h12v12H10z"></path><path d="M10 10H2V2h8zm20-8h-8v8h8zM10 22H2v8h8zm20 0h-8v8h8z" fill="url(&quot;#20lamzq4wb&quot;)"></path><path fill="none" d="M0 0h32v32H0z"></path></svg>