<svg width="106" height="24" viewBox="0 0 106 24" fill="none" xmlns="http://www.w3.org/2000/svg">
<g clip-path="url(#clip0_43945_1047)">
<mask id="mask0_43945_1047" style="mask-type:alpha" maskUnits="userSpaceOnUse" x="0" y="0" width="25" height="24">
<path d="M10.1167 10.3235C9.43858 10.9675 8.41643 10.907 7.77295 10.2264C7.16227 9.58401 7.1556 8.55865 7.83375 7.91624C8.47989 7.30583 9.53405 7.33276 10.1461 7.97731C10.7903 8.65572 10.7605 9.71148 10.1167 10.3235ZM15.9696 16.4932C15.2923 17.1356 14.2685 17.0748 13.6549 16.4311C13.0139 15.7521 13.0411 14.7649 13.7187 14.1193C14.3624 13.5086 15.3862 13.5028 16.0286 14.1801C16.6409 14.8254 16.6137 15.8809 15.9696 16.4932Z" fill="#0644A7"/>
<path d="M13.4171 13.5429C12.6106 14.3085 11.3909 14.2341 10.6663 13.4701C9.89939 12.6639 9.89619 11.4455 10.7013 10.6815C11.4669 9.954 12.7243 9.98733 13.4869 10.794C14.2147 11.561 14.1811 12.8157 13.4171 13.5429Z" fill="#0644A7"/>
<path d="M7.36428 13.1252C6.85707 13.6055 6.03092 13.5538 5.54851 13.045C5.0661 12.5346 5.08823 11.7431 5.59784 11.2615C6.10585 10.7785 6.93067 10.7665 7.41281 11.2753C7.89602 11.7839 7.87389 12.6423 7.36428 13.1252Z" fill="#0644A7"/>
<path d="M12.4752 18.5143C11.9679 18.9975 11.1751 18.9759 10.6935 18.4687C10.2098 17.9601 10.1991 17.1321 10.7087 16.6508C11.2159 16.1665 12.0757 16.1921 12.5573 16.6996C13.04 17.2081 12.984 18.0329 12.4752 18.5143Z" fill="#0644A7"/>
<path d="M6.13607 2.69252C5.91207 2.45705 5.92194 2.06051 6.19287 1.80237C6.42995 1.57757 6.82622 1.58663 7.05263 1.82371C7.31023 2.09705 7.30036 2.49039 7.06116 2.71679C6.79129 2.97493 6.39501 2.96426 6.13607 2.69252Z" fill="#0644A7"/>
<path d="M1.75634 6.79802C1.53154 6.56095 1.54301 6.16761 1.77981 5.9412C2.05235 5.6828 2.44649 5.69373 2.6729 5.9292C2.92943 6.20121 2.91957 6.59748 2.64783 6.85562C2.41022 7.08043 2.01395 7.07163 1.75634 6.79802Z" fill="#0644A7"/>
<path d="M0.258386 4.7251C0.0746493 4.5323 0.0837162 4.21042 0.27572 4.02669C0.497591 3.81548 0.820265 3.82295 1.00347 4.01895C1.21387 4.23922 1.20454 4.55976 0.982935 4.76937C0.790664 4.95311 0.467991 4.94697 0.258386 4.7251Z" fill="#0644A7"/>
<path d="M4.22667 0.854918C4.04213 0.660514 4.0512 0.339974 4.2448 0.154637C4.46507 -0.054967 4.78775 -0.0456334 4.97148 0.147171C5.18109 0.369042 5.17202 0.690915 4.95095 0.900519C4.75841 1.08426 4.43574 1.07679 4.22667 0.854918Z" fill="#0644A7"/>
<path d="M1.23912 1.65531C1.01351 1.41691 1.02498 1.02037 1.26045 0.79423C1.49752 0.571025 1.8954 0.581692 2.12233 0.820097C2.37674 1.0889 2.36634 1.48678 2.12927 1.71158C1.8922 1.93639 1.49592 1.92439 1.23912 1.65531Z" fill="#0644A7"/>
<path d="M8.16996 5.05327C7.78356 4.64766 7.83502 4.02205 8.2089 3.66818C8.61504 3.28257 9.20839 3.2975 9.59399 3.70338C9.94787 4.07832 9.93187 4.6722 9.52733 5.05647C9.15265 5.41328 8.52464 5.42848 8.16996 5.05327Z" fill="#0644A7"/>
<path d="M3.52612 9.45741C3.14105 9.0518 3.15705 8.45632 3.56266 8.07204C3.93627 7.72004 4.56348 7.70164 4.94935 8.10858C5.30243 8.48245 5.25469 9.10967 4.88109 9.46194C4.47414 9.84755 3.88027 9.83235 3.52612 9.45741Z" fill="#0644A7"/>
<path d="M3.02413 4.21626C2.67026 3.84292 2.72039 3.21544 3.0916 2.86156C3.49881 2.47596 4.09322 2.49249 4.44656 2.86636C4.83404 3.27197 4.81884 3.86718 4.41083 4.25279C4.03802 4.60667 3.41081 4.62347 3.02413 4.21626Z" fill="#0644A7"/>
<path d="M5.35872 7.0852C4.87871 6.57799 4.93257 5.75451 5.44005 5.26996C5.95126 4.78702 6.74408 4.80969 7.22462 5.31877C7.70756 5.82598 7.71956 6.65239 7.20942 7.13534C6.70034 7.61828 5.84246 7.59428 5.35872 7.0852Z" fill="#0644A7"/>
<path d="M21.2214 18.0259C21.4537 18.2569 21.85 18.2537 22.1113 17.9881C22.3423 17.7555 22.3391 17.3593 22.1068 17.1297C21.8393 16.867 21.446 16.8686 21.215 17.1022C20.954 17.3667 20.954 17.7617 21.2214 18.0259Z" fill="#0644A7"/>
<path d="M17.0229 22.3194C17.2571 22.5487 17.6517 22.5471 17.8829 22.3148C18.1469 22.0474 18.144 21.6527 17.9131 21.4215C17.6459 21.1604 17.248 21.1634 16.9864 21.4276C16.7557 21.6604 16.7589 22.0567 17.0229 22.3194Z" fill="#0644A7"/>
<path d="M19.0662 23.8612C19.256 24.0479 19.5779 24.0463 19.7664 23.858C19.9822 23.6423 19.979 23.3191 19.7891 23.1319C19.572 22.9177 19.2502 22.9177 19.0342 23.1351C18.8488 23.325 18.8488 23.6471 19.0662 23.8612Z" fill="#0644A7"/>
<path d="M23.0179 19.976C23.2077 20.1613 23.5315 20.1613 23.7181 19.9701C23.9339 19.7541 23.9309 19.4309 23.7424 19.244C23.5253 19.0282 23.2019 19.0312 22.9877 19.2498C22.8008 19.4384 22.8008 19.7618 23.0179 19.976Z" fill="#0644A7"/>
<path d="M22.1532 22.9455C22.3887 23.1733 22.7849 23.172 23.0156 22.9397C23.2449 22.7087 23.2433 22.3093 23.0097 22.0799C22.7455 21.8186 22.3476 21.8199 22.1166 22.0525C21.8873 22.2847 21.8921 22.6829 22.1532 22.9455Z" fill="#0644A7"/>
<path d="M18.9034 15.9433C19.2996 16.3382 19.9271 16.3004 20.2885 15.9358C20.6831 15.5379 20.6802 14.9441 20.2823 14.5507C19.9148 14.1878 19.3212 14.1907 18.9276 14.5889C18.566 14.9547 18.5356 15.5835 18.9034 15.9433Z" fill="#0644A7"/>
<path d="M14.4014 20.4951C14.7993 20.8898 15.3932 20.8855 15.7897 20.4874C16.1497 20.1199 16.1785 19.4956 15.7806 19.101C15.4129 18.7396 14.787 18.773 14.4257 19.1402C14.0339 19.5396 14.0369 20.1338 14.4014 20.4951Z" fill="#0644A7"/>
<path d="M19.634 21.1057C19.9986 21.4687 20.6274 21.4308 20.9874 21.0665C21.3837 20.6654 21.3791 20.0729 21.0133 19.7116C20.6154 19.3182 20.0196 19.3195 19.6266 19.719C19.2634 20.0833 19.2346 20.7137 19.634 21.1057Z" fill="#0644A7"/>
<path d="M16.8102 18.7113C17.3083 19.2049 18.1348 19.1668 18.6297 18.6686C19.122 18.1705 19.1156 17.3777 18.6174 16.8843C18.1193 16.3905 17.2931 16.3616 16.8009 16.8614C16.3059 17.3611 16.3121 18.219 16.8102 18.7113Z" fill="#0644A7"/>
<path d="M12.9311 7.7671C13.4324 7.27643 13.4111 6.44894 12.922 5.9492C12.43 5.44786 11.6388 5.43906 11.1374 5.92973C10.6356 6.41881 10.5929 7.24336 11.0828 7.7447C11.5734 8.24578 12.4329 8.25618 12.9311 7.7671Z" fill="#0644A7"/>
<path d="M18.123 13.0801C18.6243 12.591 18.6347 11.7969 18.1472 11.2966C17.6552 10.7939 16.8291 10.7528 16.3277 11.2419C15.8267 11.731 15.8176 12.591 16.3067 13.0921C16.7955 13.5934 17.6216 13.5708 18.123 13.0801Z" fill="#0644A7"/>
<path d="M13.6789 10.1136C13.0365 9.43465 13.0955 8.41116 13.776 7.77008C14.42 7.15967 15.4438 7.15353 16.0878 7.83115C16.6953 8.47489 16.6681 9.53225 16.024 10.1411C15.3467 10.7848 14.2925 10.756 13.6789 10.1136ZM7.50947 15.9641C6.86759 15.2868 6.9284 14.263 7.57241 13.6539C8.24976 13.0102 9.24071 13.0358 9.88259 13.7134C10.4938 14.3574 10.4999 15.3825 9.82259 16.0249C9.17698 16.6372 8.12122 16.6097 7.50947 15.9641Z" fill="#0644A7"/>
<path d="M21.3098 6.13357C21.5469 5.90876 21.9447 5.92076 22.1999 6.18957C22.4248 6.42824 22.4125 6.82318 22.1786 7.04799C21.9066 7.30799 21.5103 7.29706 21.2855 7.05865C21.0271 6.78798 21.0394 6.39171 21.3098 6.13357Z" fill="#0644A7"/>
<path d="M17.203 1.7555C17.4398 1.53069 17.8379 1.53976 18.0627 1.77683C18.3209 2.04884 18.3089 2.44191 18.0718 2.67018C17.8014 2.92832 17.4035 2.91605 17.1467 2.64565C16.9219 2.40538 16.9326 2.0123 17.203 1.7555Z" fill="#0644A7"/>
<path d="M19.2775 0.255367C19.4703 0.0716299 19.7938 0.0806969 19.9776 0.273501C20.1872 0.495372 20.1797 0.815912 19.9837 0.999649C19.765 1.21085 19.4429 1.20019 19.2319 0.979915C19.0482 0.785511 19.0573 0.464971 19.2775 0.255367Z" fill="#0644A7"/>
<path d="M23.1476 4.22253C23.342 4.04012 23.6641 4.04812 23.8479 4.24066C24.0559 4.46253 24.0484 4.78601 23.8553 4.96841C23.6335 5.17775 23.3116 5.16895 23.102 4.94868C22.9196 4.7556 22.926 4.43213 23.1476 4.22253Z" fill="#0644A7"/>
<path d="M22.3487 1.23659C22.5858 1.01018 22.982 1.02085 23.2071 1.25792C23.4335 1.49499 23.4212 1.89287 23.1842 2.11767C22.9138 2.37288 22.5159 2.36381 22.2911 2.12674C22.0676 1.891 22.0783 1.49312 22.3487 1.23659Z" fill="#0644A7"/>
<path d="M18.9499 8.16672C19.3539 7.78272 19.9827 7.83258 20.3366 8.20619C20.7206 8.6118 20.7057 9.20408 20.2985 9.59129C19.9262 9.94516 19.3323 9.92863 18.9451 9.52275C18.5915 9.15101 18.5763 8.5206 18.9499 8.16672Z" fill="#0644A7"/>
<path d="M14.5448 3.52385C14.9504 3.13984 15.5443 3.15318 15.9315 3.56038C16.2854 3.93399 16.3006 4.55987 15.8934 4.94708C15.52 5.30095 14.8942 5.25242 14.5403 4.87881C14.156 4.4716 14.1712 3.87772 14.5448 3.52385Z" fill="#0644A7"/>
<path d="M19.7842 3.02066C20.1594 2.66545 20.7869 2.71692 21.1424 3.0892C21.528 3.4948 21.5098 4.09002 21.1376 4.44416C20.729 4.82977 20.1351 4.81617 19.7509 4.40762C19.397 4.03535 19.3805 3.40654 19.7842 3.02066Z" fill="#0644A7"/>
<path d="M16.9155 5.3569C17.4243 4.87715 18.2491 4.93022 18.7321 5.4377C19.2137 5.94811 19.1908 6.73932 18.6833 7.22093C18.1745 7.70414 17.3497 7.71588 16.8667 7.20707C16.3856 6.69799 16.4083 5.84011 16.9155 5.3569Z" fill="#0644A7"/>
<path d="M5.97605 21.2168C5.74511 21.4507 5.74885 21.847 6.01338 22.1083C6.24726 22.3392 6.6438 22.3376 6.87394 22.1038C7.13741 21.8379 7.13447 21.4416 6.90194 21.212C6.63606 20.9507 6.24112 20.9507 5.97605 21.2168Z" fill="#0644A7"/>
<path d="M1.6818 17.0217C1.45406 17.2543 1.45406 17.6506 1.68766 17.8802C1.95433 18.1442 2.34901 18.1412 2.58075 17.9087C2.84342 17.6431 2.83889 17.2465 2.57541 16.9823C2.34181 16.7513 1.94553 16.7561 1.6818 17.0217Z" fill="#0644A7"/>
<path d="M0.140573 19.0627C-0.0460977 19.2542 -0.0447643 19.5745 0.143773 19.7627C0.361644 19.9787 0.685117 19.9755 0.871254 19.7857C1.08779 19.5699 1.08459 19.2467 0.866721 19.0323C0.67765 18.8457 0.354711 18.8473 0.140573 19.0627Z" fill="#0644A7"/>
<path d="M4.02811 23.0168C3.84118 23.2067 3.84198 23.5272 4.03185 23.7155C4.24838 23.9296 4.57106 23.9283 4.75853 23.7398C4.97187 23.5211 4.97187 23.1992 4.75319 22.9867C4.56439 22.7979 4.24225 22.7979 4.02811 23.0168Z" fill="#0644A7"/>
<path d="M1.05844 22.1537C0.8299 22.3862 0.8299 22.7825 1.06377 23.0148C1.29524 23.2425 1.69312 23.2412 1.92406 23.0073C2.18299 22.743 2.18219 22.3452 1.95152 22.1142C1.71818 21.8865 1.32111 21.8897 1.05844 22.1537Z" fill="#0644A7"/>
<path d="M8.0595 18.8987C7.66536 19.2965 7.70189 19.924 8.06723 20.2853C8.46724 20.68 9.06059 20.6771 9.45393 20.2792C9.81687 19.9117 9.81314 19.3181 9.41446 18.9245C9.04965 18.5613 8.42031 18.5325 8.0595 18.8987Z" fill="#0644A7"/>
<path d="M3.50686 14.3987C3.11272 14.7982 3.11725 15.3921 3.51432 15.7854C3.8818 16.1467 4.50768 16.1758 4.90102 15.7779C5.26236 15.4118 5.22903 14.7843 4.86288 14.423C4.46448 14.0296 3.8682 14.0326 3.50686 14.3987Z" fill="#0644A7"/>
<path d="M2.89707 19.6298C2.53333 19.9959 2.5712 20.6245 2.93601 20.9861C3.33468 21.3797 3.92856 21.3765 4.29097 21.0122C4.68644 20.6096 4.68351 20.0173 4.28404 19.6223C3.91843 19.2623 3.28962 19.2319 2.89707 19.6298Z" fill="#0644A7"/>
<path d="M5.29037 16.8075C4.79836 17.3073 4.83623 18.1337 5.33437 18.6254C5.83332 19.1204 6.62693 19.1129 7.11761 18.6148C7.61122 18.1166 7.64082 17.2905 7.14268 16.7982C6.64293 16.3049 5.78398 16.311 5.29037 16.8075Z" fill="#0644A7"/>
</mask>
<g mask="url(#mask0_43945_1047)">
<rect width="24" height="24" fill="url(#paint0_radial_43945_1047)"/>
</g>
</g>
<path d="M35.3123 10.863C35.3123 13.6712 33.4655 15.7671 30.7992 15.7671C27.9769 15.7671 26 13.589 26 10.8767C26 8.20548 27.9119 6 30.7992 6C32.464 6 33.7516 6.71233 34.558 7.93151L33.0753 9.26027C32.477 8.46575 31.7357 7.9863 30.7992 7.9863C29.2515 7.9863 28.055 9.19178 28.055 10.9315C28.055 12.5753 29.1735 13.7945 30.7472 13.7945C31.9437 13.7945 32.7241 13.1644 33.0623 12.1644H30.6952V10.3151H35.3123V10.863ZM37.8095 15.5753H35.9886V6.19178H37.8095V15.5753ZM44.9498 8.54794L42.7127 15.3288C42.0884 17.2055 41.2821 18 39.6433 18H38.993V16.2877H39.5393C40.1375 16.2877 40.5277 15.9315 40.7748 15.3836L38.2907 8.54794H40.3586L41.7243 12.8767L43.0769 8.54794H44.9498ZM49.0337 10.2055C47.9932 10.2055 47.2128 11.0411 47.2128 12.0959C47.2128 13.137 48.0192 13.9863 49.0337 13.9863C50.0221 13.9863 50.7895 13.137 50.7895 12.0959C50.7895 11.0411 50.0221 10.2055 49.0337 10.2055ZM49.1897 15.6712C48.4354 15.6712 47.707 15.4247 47.2388 15.0411V17.9863H45.431V8.54794H47.2388V9.09589C47.707 8.71233 48.4354 8.47945 49.1897 8.47945C51.0106 8.47945 52.5583 10.0274 52.5583 12.0548C52.5583 14.0822 51.0106 15.6712 49.1897 15.6712ZM54.9774 6.19178V9.26027C55.2375 8.90411 55.9529 8.42466 56.8893 8.42466C58.45 8.42466 59.4645 9.56164 59.4645 11.2603V15.5753H57.6696V11.589C57.6696 10.7534 57.2144 10.1781 56.4471 10.1781C55.5627 10.1781 54.9774 10.7671 54.9774 11.7397V15.5753H53.1696V6.19178H54.9774ZM67.6062 15.5753L66.0455 9.78082L64.5108 15.5753H62.1177L59.9457 6.19178H62.0657L63.4313 12.9315L65.2131 6.19178H66.995L68.7638 13L70.1814 6.19178H72.1844L70.0124 15.5753H67.6062ZM79.2206 14.0685C78.5703 15.0959 77.5428 15.7397 76.0602 15.7397C73.9272 15.7397 72.5485 14.1644 72.5485 12.0822C72.5485 10.0548 73.9792 8.41096 76.0732 8.41096C78.1801 8.41096 79.4547 9.94521 79.4547 11.9863C79.4547 12.2603 79.4287 12.6164 79.4287 12.6575H74.3304C74.5254 13.5479 75.1627 14.1233 76.0992 14.1233C76.9055 14.1233 77.4908 13.7534 77.868 13.1918L79.2206 14.0685ZM76.0602 9.9726C75.2148 9.9726 74.6295 10.4521 74.3954 11.2466H77.6339C77.4388 10.3973 76.7885 9.9726 76.0602 9.9726ZM83.4866 10.2055C82.4981 10.2055 81.7308 11.0548 81.7308 12.0959C81.7308 13.1507 82.4981 13.9863 83.4866 13.9863C84.5271 13.9863 85.3074 13.1507 85.3074 12.0959C85.3074 11.0548 84.5011 10.2055 83.4866 10.2055ZM85.2814 15.5753V15.0548C84.8132 15.4384 84.0849 15.6712 83.3305 15.6712C81.5097 15.6712 79.962 14.1233 79.962 12.0959C79.962 10.0685 81.5097 8.47945 83.3305 8.47945C84.0849 8.47945 84.8132 8.72603 85.2814 9.10959V8.54794H87.0893V15.5753H85.2814ZM92.1746 15.5753H89.7555L87.5835 8.54794H89.5604L91.0041 13.7671L92.4347 8.54794H94.3466L92.1746 15.5753ZM101.396 14.0685C100.746 15.0959 99.7181 15.7397 98.2354 15.7397C96.1024 15.7397 94.7238 14.1644 94.7238 12.0822C94.7238 10.0548 96.1545 8.41096 98.2484 8.41096C100.355 8.41096 101.63 9.94521 101.63 11.9863C101.63 12.2603 101.604 12.6164 101.604 12.6575H96.5056C96.7007 13.5479 97.338 14.1233 98.2744 14.1233C99.0808 14.1233 99.6661 13.7534 100.043 13.1918L101.396 14.0685ZM98.2354 9.9726C97.39 9.9726 96.8047 10.4521 96.5706 11.2466H99.8091C99.614 10.3973 98.9637 9.9726 98.2354 9.9726ZM104.075 15.5753H102.254V8.54794H104.062V9.50685C104.504 8.86301 105.168 8.45206 106 8.45206V10.3699C104.673 10.3699 104.075 11.1507 104.075 12.3699V15.5753Z" fill="#3EC9F3"/>
<defs>
<radialGradient id="paint0_radial_43945_1047" cx="0" cy="0" r="1" gradientUnits="userSpaceOnUse" gradientTransform="translate(12 12) rotate(90) scale(12)">
<stop stop-color="#034272"/>
<stop offset="1" stop-color="#3EC9F3"/>
</radialGradient>
<clipPath id="clip0_43945_1047">
<rect width="24" height="24" fill="white"/>
</clipPath>
</defs>
</svg>
